<svg xmlns="http://www.w3.org/2000/svg" width="640" height="360" viewBox="0 0 640 360" role="img" aria-label="Ask before sharing a photo">
  <defs>
    <linearGradient id="ep2-bg" x1="0%" y1="0%" x2="100%" y2="100%">
      <stop offset="0%" stop-color="#78350f"/>
      <stop offset="40%" stop-color="#ca8a04"/>
      <stop offset="100%" stop-color="#fde68a"/>
    </linearGradient>
  </defs>
  <rect width="640" height="360" fill="url(#ep2-bg)"/>
  <g transform="translate(90 120)">
    <path d="M60 200 Q60 80 90 60 Q120 40 150 70 Q180 100 170 200 Z" fill="#166534" opacity="0.85"/>
    <path d="M95 200 v-90 M130 200 v-110 M65 200 v-70" stroke="#4ade80" stroke-width="6" opacity="0.6"/>
    <circle cx="120" cy="75" r="12" fill="#f472b6" opacity="0.8"/>
    <circle cx="100" cy="95" r="10" fill="#fbbf24" opacity="0.8"/>
  </g>
  <g transform="translate(380 95)">
    <rect x="0" y="0" width="160" height="200" rx="16" fill="#1f2937" stroke="#fef3c7" stroke-width="4"/>
    <rect x="14" y="18" width="132" height="120" rx="8" fill="#374151"/>
    <ellipse cx="80" cy="78" rx="36" ry="28" fill="#065f46" opacity="0.9"/>
    <circle cx="140" cy="28" r="18" fill="#fef08a"/>
    <circle cx="140" cy="28" r="10" fill="none" stroke="#854d0e" stroke-width="3"/>
    <circle cx="140" cy="28" r="4" fill="#854d0e"/>
  </g>
  <g transform="translate(300 40) rotate(-12)">
    <rect x="0" y="0" width="72" height="56" rx="6" fill="#ffffff" stroke="#b45309" stroke-width="3"/>
    <rect x="8" y="8" width="56" height="36" rx="4" fill="#fde68a"/>
    <path d="M36 70 L20 95 L52 95 Z" fill="#ffffff" stroke="#b45309" stroke-width="2"/>
  </g>
  <path d="M250 55 Q340 25 430 70" fill="none" stroke="#ffffff" stroke-width="2" stroke-dasharray="8 6" opacity="0.7"/>
  <text x="320" y="320" text-anchor="middle" font-family="Arial, Helvetica, sans-serif" font-size="22" font-weight="700" fill="#ffffff">Ask before you share</text>
</svg>
